<svg xmlns="http://www.w3.org/2000/svg" xmlns:xlink="http://www.w3.org/1999/xlink" version="1.1" id="Layer_1" x="0px" y="0px" width="100px" height="100px" viewBox="0 0 100 100" enable-background="new 0 0 100 100" xml:space="preserve">
<path fill="#000000" d="M91.756,23.416c-1.38-4.616-5.356-7.994-9.455-8.03h-0.007h-0.006H82.23c-1.91,0-3.611,0.729-4.918,1.991  l0.239-0.88c1.094-4.024-1.155-7.021-5.064-7.021c-0.289,0-0.588,0.017-0.895,0.05l-6.812,0.746H64.78l-6.693,0.736  c-0.199,0.02-0.396,0.059-0.593,0.094c-2.149,0.156-4.684,0.271-7.502,0.271c-3.021,0-5.395-0.098-7.226-0.227  c-0.281-0.059-0.565-0.107-0.854-0.139l-4.077-0.449h-0.002l-9.427-1.033c-0.307-0.034-0.606-0.05-0.895-0.05  c-3.91,0-6.158,2.997-5.065,7.021l0.309,1.138c-1.311-1.299-3.042-2.032-5.03-2.032h-0.001H17.71  c-4.11,0.037-8.087,3.414-9.467,8.031c-1.114,3.729-1.992,13.384,13.008,23.994c-0.727,0.017-1.426,0.245-2.026,0.662  c-0.812,0.563-1.356,1.411-1.531,2.384c-0.176,0.974,0.039,1.958,0.604,2.771c2.161,3.111,5.161,4.896,8.23,4.896  c0.502,0,1.002-0.051,1.486-0.151c2.62-0.556,4.552-2.492,5.046-5.056c0.116-0.603,0.191-1.549-0.037-2.71  c1.538,2.433,3.376,4.692,5.129,6.163l5.849,4.908l-0.393-0.33c0.607,3.576,0.639,6.893,0.036,8.413  c-1.214,3.068-1.815,4.054-1.814,4.054c-0.141,0.201-0.829,1.246-0.569,2.231c0.057,0.218,0.153,0.413,0.285,0.583  c-0.119,0.243-0.319,0.566-0.653,0.932c-1.094,0.685-1.418,1.952-1.435,2.635c0,5.969-3.449,6.178-3.586,6.184  c-0.469,0.009-0.845,0.392-0.845,0.861v2.609c0,0.476,0.386,0.861,0.861,0.861h28.227c0.476,0,0.861-0.386,0.861-0.861v-2.609  c0-0.47-0.376-0.853-0.846-0.861c-0.035-0.001-3.584-0.137-3.584-6.205c-0.003-0.128-0.05-1.178-0.718-2.03  c-0.006-0.01-0.012-0.02-0.018-0.029l-1.189-1.874c0.297-0.741,0.02-1.669-0.49-2.391c-0.006-0.009-0.604-0.98-1.835-4.089  c-0.875-2.206-0.283-6.41,0.071-8.391l5.481-4.601c1.729-1.452,3.544-3.67,5.069-6.067c-0.159,1.021-0.083,1.852,0.023,2.4  c0.493,2.564,2.426,4.503,5.043,5.055c0.487,0.102,0.987,0.152,1.489,0.152c3.067,0,6.067-1.784,8.23-4.896  c1.164-1.676,0.747-3.988-0.929-5.154c-0.601-0.418-1.299-0.646-2.027-0.663C93.752,36.801,92.871,27.146,91.756,23.416z   M31.707,52.871c-0.388,2.01-1.91,3.529-3.975,3.967c-0.374,0.078-0.777,0.123-1.204,0.123c-2.162,0-4.884-1.115-7.099-4.305  c-0.733-1.055-0.472-2.504,0.583-3.236c0.404-0.281,0.866-0.416,1.324-0.416c0.736,0,1.461,0.349,1.914,1  c1.271,1.829,2.54,2.309,3.255,2.309c0.1,0,0.188-0.009,0.265-0.025c0.325-0.07,0.355-0.219,0.37-0.299  c0.141-0.732-0.75-2.559-3.783-4.586C7.729,36.943,8.506,27.57,9.564,24.027c1.211-4.053,4.638-7.016,8.147-7.047  c0.005,0,0.01,0,0.015,0c2.725,0,4.849,1.648,5.746,4.459c0.103,0.326,0.127,0.656,0.09,0.973c0.619,0.666,1.005,1.551,1.005,2.531  c0,2.062-1.672,3.734-3.733,3.734s-3.732-1.672-3.732-3.734c0-1.211,0.586-2.277,1.48-2.959c-0.313-0.348-0.643-0.352-0.829-0.354  c-1.09,0.012-2.968,1.174-3.731,3.727c-1.591,5.322,2.866,12.119,11.923,18.18C31.991,47.58,31.989,51.41,31.707,52.871z   M26.71,42.391c-8.4-5.621-12.756-11.997-11.369-16.639c0.107-0.358,0.238-0.674,0.383-0.953c-0.001,0.048-0.002,0.096-0.002,0.144  c0,2.819,2.293,5.113,5.111,5.113c1.984,0,3.688-1.148,4.535-2.804L29.78,43.49c0.188,0.691,0.448,1.425,0.757,2.179  C29.605,44.603,28.365,43.497,26.71,42.391z M56.696,74.618c0.185,0.268,0.343,0.674,0.345,0.756  c-0.3,0.221-0.396,0.608-0.279,0.962c0.041,0.124,0.112,0.234,0.203,0.325l1.196,1.886c0.024,0.085,0.062,0.166,0.112,0.241  c0.032,0.048,0.068,0.093,0.109,0.134c0.338,0.335,0.432,0.919,0.439,1.088c0,5.791,2.938,7.342,4.43,7.756v1.037H36.748v-1.036  c1.491-0.413,4.432-1.958,4.431-7.728c0-0.009,0.046-0.884,0.676-1.233c0.077-0.042,0.146-0.096,0.207-0.159  c0.993-1.042,1.266-1.959,1.337-2.305c0.08-0.389-0.113-0.748-0.472-0.918c-0.03-0.132,0.129-0.538,0.333-0.833  c0.027-0.042,0.673-1.064,1.986-4.381c0.761-1.918,0.65-4.808,0.327-7.322c1.418,1.366,1.861,2.005,4.428,2.005  c2.388,0,2.942-0.623,4.355-1.951c-0.295,2.356-0.432,5.33,0.338,7.269C56.006,73.526,56.65,74.548,56.696,74.618z M60.962,55.528  l-5.667,4.755l-0.232,0.196c-0.036,0.179-0.336,0.095-0.376,0.316c-0.597,0.503-1.073,0.95-1.454,1.311  c-1.207,1.138-1.494,1.408-3.232,1.408c-1.81,0-2.068-0.253-3.156-1.313c-0.399-0.39-0.896-0.874-1.559-1.431l-6.247-5.242  c-3.2-2.686-6.831-8.364-7.928-12.399l-7.333-26.994c-0.423-1.557-0.252-2.942,0.481-3.901c0.681-0.89,1.836-1.38,3.253-1.38  c0.241,0,0.492,0.014,0.745,0.042l9.427,1.033l0.064,0.007l4.017,0.442c0.219,0.024,0.455,0.062,0.721,0.118l0.091,0.019  l0.093,0.007c2.167,0.152,4.631,0.23,7.322,0.23c2.533,0,5.091-0.093,7.602-0.275l0.071-0.005l0.071-0.013l0.104-0.019  c0.126-0.023,0.253-0.047,0.396-0.062l6.694-0.736l6.812-0.746c0.253-0.028,0.504-0.042,0.744-0.042c1.418,0,2.573,0.49,3.254,1.381  c0.733,0.958,0.903,2.344,0.48,3.9l-1.889,6.952c-0.041,0.119-0.066,0.242-0.099,0.364L68.89,43.129  C67.793,47.163,64.162,52.842,60.962,55.528z M70.22,43.49l4.45-16.383c0.859,1.617,2.541,2.732,4.496,2.732  c2.818,0,5.111-2.293,5.111-5.111c0-0.048,0-0.096-0.002-0.144c0.146,0.278,0.275,0.595,0.383,0.953  c1.387,4.642-2.969,11.017-11.368,16.638c-1.569,1.049-2.757,2.098-3.672,3.112C69.859,44.668,70.063,44.064,70.22,43.49z   M76.644,47.186c-3.033,2.029-3.925,3.855-3.783,4.588c0.016,0.08,0.044,0.229,0.369,0.297c0.076,0.016,0.163,0.024,0.262,0.024  c0.715,0,1.985-0.474,3.26-2.306c0.451-0.652,1.175-1,1.911-1c0.458,0,0.921,0.135,1.325,0.417c1.055,0.734,1.316,2.182,0.584,3.236  c-2.216,3.188-4.937,4.305-7.099,4.305c-0.427,0-0.83-0.045-1.205-0.123c-2.064-0.436-3.587-1.957-3.974-3.969  c-0.283-1.459-0.284-5.289,5.763-9.334c9.056-6.061,13.513-12.855,11.922-18.178c-0.763-2.555-2.642-3.717-3.731-3.727  c-0.188,0.004-0.516,0.006-0.829,0.354c0.895,0.682,1.481,1.746,1.481,2.959c0,2.061-1.672,3.732-3.733,3.732  s-3.733-1.672-3.733-3.732c0-0.23,0.025-0.454,0.065-0.672l0.084-0.308c0.163-0.585,0.453-1.118,0.856-1.553  c-0.038-0.316-0.014-0.646,0.089-0.969c0.892-2.797,3.021-4.463,5.703-4.463c0.02,0,0.039,0,0.058,0  c3.511,0.031,6.937,2.996,8.147,7.047C91.495,27.354,92.271,36.729,76.644,47.186z"/>
</svg>