<svg xmlns="http://www.w3.org/2000/svg" xmlns:xlink="http://www.w3.org/1999/xlink" version="1.1" id="Layer_1" x="0px" y="0px" width="100px" height="100px" viewBox="0 0 100 100" enable-background="new 0 0 100 100" xml:space="preserve">
<path d="M61.988,58.844c0.012,0.011,0.023,0.022,0.035,0.033l20.58-44.134c-0.013-0.009-0.025-0.018-0.038-0.028  c-0.611-0.449-1.23-0.887-1.859-1.311L60.199,57.382C60.823,57.837,61.42,58.324,61.988,58.844z"/>
<path d="M48.77,41.976l1.178,2.525l1.405,3.013l3.253,6.976c1.016,0.341,1.997,0.759,2.936,1.246  c0.051,0.027,0.102,0.054,0.153,0.081c0.113,0.06,0.226,0.121,0.338,0.183l20.509-43.981c-2.736-1.661-5.63-3.087-8.652-4.256  L52.588,44.866l-1.405-3.013l16.3-34.956c-0.713-0.238-1.432-0.462-2.158-0.671L49.948,39.203L34.602,6.293  c-0.724,0.212-1.444,0.436-2.155,0.677l16.266,34.882L48.77,41.976z"/>
<path d="M38.846,55.558l-19.594-42.02c-0.628,0.427-1.247,0.867-1.856,1.318L36.89,56.662C37.52,56.259,38.173,55.892,38.846,55.558  z"/>
<path d="M43.037,54.024c0.043-0.011,0.087-0.021,0.131-0.032c0.836-0.201,1.691-0.351,2.563-0.446  c0.751-0.083,1.514-0.126,2.287-0.126c0.193,0,0.386,0.003,0.578,0.008c0.962,0.026,1.907,0.119,2.832,0.273l-1.479-3.173  l-1.405-3.013l-1.178-2.525l-0.058-0.124L30.046,7.848c-3.017,1.182-5.903,2.624-8.633,4.297l19.784,42.426  C41.798,54.361,42.412,54.179,43.037,54.024z"/>
<path d="M60.559,61.908c-0.015-0.015-0.03-0.031-0.045-0.046c-0.072-0.073-0.144-0.146-0.218-0.218  c-0.468-0.461-0.96-0.897-1.477-1.303c-0.675-0.531-1.389-1.012-2.138-1.441c-0.008-0.005-0.017-0.009-0.025-0.014  c-1.104-0.629-2.283-1.141-3.519-1.52c-1.62-0.496-3.338-0.764-5.118-0.764c-0.306,0-0.611,0.008-0.913,0.024  c-1.028,0.053-2.032,0.195-3.006,0.419c-0.526,0.121-1.042,0.266-1.548,0.433c-0.414,0.136-0.821,0.288-1.22,0.453  c-0.048,0.02-0.096,0.039-0.143,0.059c-0.337,0.143-0.667,0.297-0.993,0.461c-0.673,0.338-1.322,0.717-1.942,1.135  c-0.013,0.009-0.026,0.017-0.038,0.026c-4.643,3.151-7.7,8.472-7.7,14.493c0,9.651,7.852,17.503,17.503,17.503  s17.503-7.852,17.503-17.503c0-4.72-1.879-9.01-4.928-12.161C60.582,61.932,60.571,61.92,60.559,61.908z M48.018,89.368  c-8.416,0-15.264-6.847-15.264-15.264c0-5.123,2.537-9.665,6.421-12.435c0.013-0.009,0.025-0.018,0.038-0.027  c0.131-0.093,0.264-0.183,0.398-0.272c0.056-0.037,0.111-0.074,0.167-0.11c0.44-0.283,0.895-0.544,1.364-0.781  c0.548-0.278,1.115-0.523,1.698-0.734c0.22-0.079,0.441-0.154,0.665-0.224c0.809-0.251,1.646-0.435,2.505-0.549  c0.657-0.087,1.327-0.132,2.008-0.132c2.316,0,4.512,0.519,6.481,1.446c0.422,0.199,0.833,0.416,1.232,0.651  c0.582,0.342,1.14,0.722,1.67,1.136c0.23,0.18,0.455,0.367,0.675,0.56c3.189,2.8,5.206,6.904,5.206,11.471  C63.282,82.521,56.434,89.368,48.018,89.368z"/>
<path d="M61.566,59.857c-0.012-0.011-0.024-0.022-0.035-0.033c-0.561-0.531-1.154-1.03-1.774-1.494  c-0.423-0.315-0.859-0.613-1.307-0.894c-0.054-0.034-0.109-0.068-0.163-0.102c-0.226-0.139-0.456-0.273-0.688-0.403  c-0.765-0.428-1.56-0.808-2.384-1.133c-1.047-0.413-2.137-0.738-3.262-0.968c-1.238-0.252-2.518-0.387-3.828-0.395  c-0.036,0-0.072-0.001-0.108-0.001c-0.949,0-1.881,0.069-2.794,0.199c-0.892,0.127-1.765,0.314-2.615,0.557  c-0.045,0.013-0.09,0.027-0.134,0.04c-0.284,0.084-0.566,0.173-0.845,0.269c-0.809,0.278-1.593,0.609-2.351,0.986  c-0.673,0.335-1.324,0.707-1.951,1.115c-0.013,0.008-0.026,0.017-0.039,0.025c-5.379,3.514-8.942,9.588-8.942,16.479  c0,10.846,8.824,19.67,19.67,19.67s19.67-8.824,19.67-19.67C67.688,68.504,65.335,63.443,61.566,59.857z M48.018,92.795  c-10.306,0-18.691-8.385-18.691-18.691c0-6.498,3.334-12.231,8.381-15.582c0.013-0.009,0.026-0.017,0.039-0.025  c0.624-0.412,1.274-0.788,1.947-1.124c0.715-0.357,1.455-0.67,2.217-0.934c0.045-0.016,0.09-0.032,0.135-0.047l0.001,0.003  l0.002-0.004c0.865-0.292,1.759-0.523,2.675-0.687c0.958-0.171,1.942-0.268,2.944-0.286c0.117-0.002,0.233-0.004,0.35-0.004  c1.537,0,3.03,0.188,4.46,0.539c1.166,0.287,2.29,0.683,3.359,1.177c0.459,0.212,0.909,0.443,1.347,0.691  c0.661,0.374,1.298,0.786,1.906,1.235c0.059,0.044,0.119,0.088,0.177,0.132l0.045,0.096l0.021-0.045  c0.618,0.472,1.206,0.981,1.76,1.524c0.012,0.011,0.023,0.023,0.035,0.034c3.443,3.392,5.58,8.104,5.58,13.308  C66.709,84.411,58.324,92.795,48.018,92.795z"/>
</svg>